<svg xmlns="http://www.w3.org/2000/svg" viewBox="0 0 509.89 231.14"><defs><style>.cls-1{fill:#d62b84;}.cls-2{fill:#1d1d1b;}.cls-3{fill:#689cd3;}.cls-4{fill:#7c5aa2;}</style></defs><g id="Layer_2" data-name="Layer 2"><g id="Layer_1-2" data-name="Layer 1"><path class="cls-1" d="M239.19,19.39l46.2,43.76V175l-46.2,46.19S238.38,19.39,239.19,19.39Z"/><polyline class="cls-2" points="272.83 16.95 324.7 16.95 390.75 88.28 460.45 17.76 508.68 17.76 415.07 117.86 509.89 219.17 457.62 219.17 272.83 16.95"/><polyline class="cls-3" points="385.65 154.24 323.48 218.36 271.21 218.36 359.71 126.28"/><path class="cls-2" d="M218.71,157.5c.08,29.48-.07,5,.31,34.45,0,2.54-41.15,31.66-59.59,35.35-28.67,5.74-57.13,5.62-85-4.26C31.74,207.9,2.93,167.44.22,123.4-3.72,59.07,45,16.27,87.12,5.39,127.4-5,165.81-1,200.92,23c2.84,1.93,5.33,4.35,8.69,7.13L180.12,61.87c-4.83-3-9-5.79-13.27-8.34-32.09-19.12-78.27-14-102.67,13.53-14.24,16-19.72,34.67-18.09,55.93,2.58,33.6,33.69,63,68.86,65.29,17.61,1.15,34.61-.44,50.92-7.4,2.6-1.12,5-2.62,7.43-3.89V157.5"/><path class="cls-4" d="M219.86,136.93V98.53H114.71v38.4Z"/><path class="cls-4" d="M219.86,145V98.53H114.71V145Z"/></g></g></svg>